<svg xmlns="http://www.w3.org/2000/svg" viewBox="0 0 64 64" fill="none">
  <rect width="64" height="64" rx="14" fill="#F8FAFC"/>
  <g transform="translate(4,2) scale(0.175)">
    <path d="M301.976 155.749C297.053 132.813 286.94 111.31 272.414 92.8885C270.809 90.8618 268.681 88.3623 266.535 85.9303C265.874 85.1729 264.997 84.6355 264.022 84.3903C263.047 84.1451 262.02 84.2038 261.079 84.5583C260.138 84.913 259.328 85.5466 258.757 86.3744C258.187 87.2022 257.883 88.1845 257.886 89.1898V98.6814C257.884 99.8178 258.271 100.921 258.984 101.806L259.778 102.768C269.54 115.41 277.154 129.572 282.313 144.686C287.022 158.711 289.307 173.434 289.07 188.226C289.154 206.504 285.551 224.612 278.474 241.466C271.398 258.32 260.994 273.574 247.886 286.316C244.507 289.694 240.791 293.072 239.777 293.815C239.6 293.938 239.393 294.01 239.178 294.024C238.963 294.038 238.748 293.993 238.557 293.894C238.366 293.795 238.205 293.646 238.093 293.462C237.98 293.278 237.92 293.067 237.919 292.852V65.3597C237.914 64.6922 237.777 64.0323 237.516 63.4178C237.255 62.8034 236.875 62.2466 236.398 61.7793L204.471 31.2612C189.571 17.0071 179.638 7.61689 173.135 1.36803C172.433 0.706292 171.553 0.264109 170.603 0.0958679C169.652 -0.0723731 168.674 0.0406649 167.787 0.421079C166.901 0.801494 166.145 1.4327 165.612 2.23705C165.079 3.04141 164.794 3.98385 164.79 4.94846V336.814C164.791 337.419 164.92 338.017 165.167 338.57C165.414 339.123 165.775 339.617 166.226 340.022C166.676 340.426 167.207 340.731 167.783 340.918C168.359 341.104 168.968 341.167 169.57 341.103C194.335 338.57 221.634 327.592 243.392 311.396C253.307 303.598 262.433 294.847 270.64 285.269C285.411 266.774 295.915 245.246 301.402 222.223C306.353 200.362 306.548 177.692 301.976 155.749Z" fill="#124775"/>
    <path d="M147.981 93.9863C147.982 93.083 147.734 92.1969 147.265 91.4247C146.797 90.6525 146.125 90.0238 145.323 89.6073C144.521 89.1909 143.62 89.0026 142.719 89.063C141.817 89.1234 140.95 89.4302 140.211 89.9499C130.84 96.3797 121.818 103.303 113.182 110.689C94.2114 127.578 76.9131 142.778 74.8184 144.67C73.6236 145.729 72.666 147.029 72.0081 148.485C71.3503 149.94 71.0069 151.517 71.0006 153.114L70.781 223.017L70.1053 292.464C70.1023 292.824 69.9962 293.176 69.7996 293.479C69.603 293.781 69.324 294.021 68.9956 294.17C68.6671 294.319 68.3029 294.371 67.9458 294.32C67.5887 294.269 67.2537 294.117 66.9801 293.882C64.2241 292.271 61.6573 290.356 59.3276 288.174C40.2274 270.154 26.6528 247.071 20.1913 221.623C13.7297 196.174 14.6481 169.413 22.8391 144.467C34.5691 109.76 59.4325 81.0282 92.0998 64.4309C106.307 57.3038 126.004 51.6799 143.758 49.0621C144.93 48.8913 146 48.3035 146.773 47.4068C147.546 46.5102 147.969 45.3648 147.964 44.1812V37.983C147.964 37.2732 147.812 36.5717 147.517 35.9261C147.222 35.2805 146.791 34.7059 146.254 34.2413C145.717 33.7767 145.087 33.433 144.406 33.2336C143.724 33.0341 143.008 32.9835 142.305 33.0853C94.7688 39.7226 48.077 66.8629 22.7547 106.991C0.97978 141.579 -5.62532 185.98 4.9327 226.749C10.4787 247.738 20.359 267.333 33.9377 284.273C42.2332 294.047 51.4671 302.984 61.5068 310.957C83.4764 327.551 109.481 337.976 136.832 341.154C139.093 341.158 141.351 341 143.589 340.681C144.803 340.552 145.927 339.979 146.744 339.072C147.561 338.164 148.014 336.987 148.015 335.766L147.981 93.9863Z" fill="#107F4B"/>
  </g>
</svg>
