<svg width="1200" height="342" viewBox="0 0 1200 342" fill="none" xmlns="http://www.w3.org/2000/svg">
<g clip-path="url(#clip0_1403_4703)">
<path d="M301.976 155.749C297.053 132.813 286.94 111.31 272.414 92.8885C270.809 90.8618 268.681 88.3623 266.535 85.9303C265.874 85.1729 264.997 84.6355 264.022 84.3903C263.047 84.1451 262.02 84.2038 261.079 84.5583C260.138 84.913 259.328 85.5466 258.757 86.3744C258.187 87.2022 257.883 88.1845 257.886 89.1898V98.6814C257.884 99.8178 258.271 100.921 258.984 101.806L259.778 102.768C269.54 115.41 277.154 129.572 282.313 144.686C287.022 158.711 289.307 173.434 289.07 188.226C289.154 206.504 285.551 224.612 278.474 241.466C271.398 258.32 260.994 273.574 247.886 286.316C244.507 289.694 240.791 293.072 239.777 293.815C239.6 293.938 239.393 294.01 239.178 294.024C238.963 294.038 238.748 293.993 238.557 293.894C238.366 293.795 238.205 293.646 238.093 293.462C237.98 293.278 237.92 293.067 237.919 292.852V65.3597C237.914 64.6922 237.777 64.0323 237.516 63.4178C237.255 62.8034 236.875 62.2466 236.398 61.7793L204.471 31.2612C189.571 17.0071 179.638 7.61689 173.135 1.36803C172.433 0.706292 171.553 0.264109 170.603 0.0958679C169.652 -0.0723731 168.674 0.0406649 167.787 0.421079C166.901 0.801494 166.145 1.4327 165.612 2.23705C165.079 3.04141 164.794 3.98385 164.79 4.94846V336.814C164.791 337.419 164.92 338.017 165.167 338.57C165.414 339.123 165.775 339.617 166.226 340.022C166.676 340.426 167.207 340.731 167.783 340.918C168.359 341.104 168.968 341.167 169.57 341.103C194.335 338.57 221.634 327.592 243.392 311.396C253.307 303.598 262.433 294.847 270.64 285.269C285.411 266.774 295.915 245.246 301.402 222.223C306.353 200.362 306.548 177.692 301.976 155.749Z" fill="#124775"/>
<path d="M147.981 93.9863C147.982 93.083 147.734 92.1969 147.265 91.4247C146.797 90.6525 146.125 90.0238 145.323 89.6073C144.521 89.1909 143.62 89.0026 142.719 89.063C141.817 89.1234 140.95 89.4302 140.211 89.9499C130.84 96.3797 121.818 103.303 113.182 110.689C94.2114 127.578 76.9131 142.778 74.8184 144.67C73.6236 145.729 72.666 147.029 72.0081 148.485C71.3503 149.94 71.0069 151.517 71.0006 153.114L70.781 223.017L70.1053 292.464C70.1023 292.824 69.9962 293.176 69.7996 293.479C69.603 293.781 69.324 294.021 68.9956 294.17C68.6671 294.319 68.3029 294.371 67.9458 294.32C67.5887 294.269 67.2537 294.117 66.9801 293.882C64.2241 292.271 61.6573 290.356 59.3276 288.174C40.2274 270.154 26.6528 247.071 20.1913 221.623C13.7297 196.174 14.6481 169.413 22.8391 144.467C34.5691 109.76 59.4325 81.0282 92.0998 64.4309C106.307 57.3038 126.004 51.6799 143.758 49.0621C144.93 48.8913 146 48.3035 146.773 47.4068C147.546 46.5102 147.969 45.3648 147.964 44.1812V37.983C147.964 37.2732 147.812 36.5717 147.517 35.9261C147.222 35.2805 146.791 34.7059 146.254 34.2413C145.717 33.7767 145.087 33.433 144.406 33.2336C143.724 33.0341 143.008 32.9835 142.305 33.0853C94.7688 39.7226 48.077 66.8629 22.7547 106.991C0.97978 141.579 -5.62532 185.98 4.9327 226.749C10.4787 247.738 20.359 267.333 33.9377 284.273C42.2332 294.047 51.4671 302.984 61.5068 310.957C83.4764 327.551 109.481 337.976 136.832 341.154C139.093 341.158 141.351 341 143.589 340.681C144.803 340.552 145.927 339.979 146.744 339.072C147.561 338.164 148.014 336.987 148.015 335.766L147.981 93.9863Z" fill="#107F4B"/>
<path d="M572.955 226.31C559.998 228.489 550.116 238.132 546.416 252.048C544.879 259.645 544.879 267.472 546.416 275.068C549.203 285.488 555.183 293.105 563.714 297.142C567.938 299.134 569.34 299.438 575.438 299.709C586.469 300.215 594.02 297.344 600.777 290.15C607.534 282.955 610.288 274.663 610.271 262.536C610.271 253.889 608.987 248.248 605.693 242.033C602.555 236.329 597.713 231.748 591.843 228.929C585.974 226.11 579.37 225.194 572.955 226.31ZM587.077 235.666C595.692 240.057 600.591 249.988 600.591 262.874C600.591 280.489 591.283 292.548 577.702 292.548C569.036 292.548 562.278 287.887 558.106 279.037C550.876 263.685 555.724 242.101 567.752 235.97C571.041 233.971 574.915 233.154 578.732 233.657C581.615 233.661 584.456 234.344 587.026 235.649L587.077 235.666Z" fill="#124775"/>
<path d="M801.633 227.189C799.553 227.369 797.484 227.657 795.433 228.05C794.943 228.236 794.825 239.281 795.062 263.516L795.366 295.909C795.374 296.665 795.678 297.388 796.211 297.924C796.744 298.46 797.465 298.767 798.221 298.78L808.019 298.932C821.989 299.152 827.918 298.206 835.503 294.507C841.379 291.196 846.203 286.297 849.423 280.371C854.491 269.478 854.677 253.772 849.795 244.044C842.75 229.992 827.074 224.503 801.633 227.155V227.189ZM827.952 235.954C831.564 237.198 834.806 239.328 837.383 242.149C839.959 244.969 841.787 248.39 842.7 252.1C843.595 255.224 843.798 257.859 843.544 263.753C843.156 273.346 841.618 277.72 836.787 283.074C832.916 287.428 827.669 290.325 821.921 291.282C817.259 292.261 808.306 292.548 805.535 291.839C805.105 291.721 804.726 291.466 804.454 291.112C804.183 290.758 804.034 290.326 804.032 289.88V263.094C804.032 236.714 804.116 234.738 805.231 234.383C808.604 234.137 811.989 234.092 815.367 234.248C822.563 234.417 824.996 234.738 828.037 235.937L827.952 235.954Z" fill="#124775"/>
<path d="M1168.11 227.526C1148.31 231.866 1136.65 250.799 1140.86 271.775C1142.83 281.57 1146.82 288.14 1153.78 293.021C1163.61 299.911 1178.87 301.465 1194.02 297.159L1196.59 296.432C1197.13 296.279 1197.61 295.952 1197.96 295.501C1198.3 295.05 1198.49 294.5 1198.5 293.933L1198.65 278.733L1198.8 263.33C1198.8 263.092 1198.76 262.856 1198.67 262.635C1198.59 262.414 1198.45 262.212 1198.29 262.043C1198.12 261.873 1197.92 261.738 1197.7 261.646C1197.48 261.554 1197.25 261.506 1197.01 261.506H1177.92C1177.28 261.506 1176.67 261.759 1176.22 262.209C1175.77 262.659 1175.52 263.269 1175.52 263.905V267.164C1175.55 267.471 1175.68 267.758 1175.9 267.977C1176.11 268.196 1176.4 268.333 1176.7 268.363H1187.77C1188.05 268.361 1188.33 268.414 1188.59 268.52C1188.85 268.626 1189.09 268.783 1189.29 268.98C1189.48 269.178 1189.64 269.414 1189.75 269.673C1189.86 269.932 1189.91 270.21 1189.91 270.491V279.29C1189.91 285.32 1189.63 290.386 1189.26 290.589C1187.24 291.131 1185.19 291.521 1183.12 291.754C1172.99 293.19 1163.87 290.64 1157.78 284.695C1151.7 278.75 1148.34 267.198 1150.06 257.673C1153.58 238.098 1170.88 229.62 1193.16 236.562C1194.49 236.984 1194.85 236.663 1195.73 233.437C1196.17 232.203 1196.44 230.912 1196.54 229.603C1194.71 228.936 1192.85 228.372 1190.96 227.914C1183.45 226.266 1175.68 226.163 1168.12 227.611L1168.11 227.526Z" fill="#124775"/>
<path d="M418.943 262.959L419.112 296.551C419.111 297.152 419.343 297.73 419.758 298.164C420.174 298.598 420.741 298.855 421.341 298.881L423.402 298.983L425.092 299.067C425.423 299.081 425.754 299.028 426.065 298.911C426.376 298.795 426.66 298.617 426.901 298.389C427.142 298.16 427.335 297.886 427.468 297.582C427.601 297.278 427.672 296.95 427.676 296.618L427.828 282.178L427.98 266.793C428.002 266.359 428.189 265.951 428.504 265.653C428.818 265.354 429.236 265.188 429.67 265.188H461.023C461.554 265.188 462.065 265.397 462.444 265.77C462.823 266.143 463.041 266.649 463.05 267.181L463.202 282.145L463.337 296.584C463.346 297.257 463.618 297.898 464.095 298.372C464.572 298.846 465.216 299.113 465.888 299.118H469.824C470.147 299.118 470.467 299.054 470.765 298.93C471.063 298.806 471.334 298.624 471.562 298.395C471.79 298.165 471.97 297.893 472.092 297.594C472.214 297.295 472.276 296.975 472.273 296.652V228.827C472.273 228.379 472.095 227.949 471.778 227.632C471.462 227.316 471.032 227.138 470.584 227.138H465.246C464.997 227.138 464.751 227.187 464.522 227.282C464.292 227.377 464.084 227.516 463.908 227.692C463.732 227.867 463.593 228.076 463.498 228.305C463.403 228.535 463.354 228.781 463.354 229.029V255.258C463.354 255.795 463.14 256.311 462.76 256.691C462.38 257.071 461.864 257.284 461.327 257.284H429.517C429.016 257.284 428.534 257.085 428.18 256.73C427.825 256.375 427.625 255.894 427.625 255.393V229.181C427.621 228.642 427.404 228.127 427.021 227.747C426.638 227.368 426.121 227.155 425.581 227.155H421.156C420.835 227.155 420.517 227.218 420.221 227.341C419.924 227.465 419.656 227.645 419.429 227.873C419.203 228.1 419.025 228.371 418.903 228.668C418.782 228.965 418.721 229.283 418.723 229.603L418.943 262.959Z" fill="#124775"/>
<path d="M684.008 263.128V295.757C684.008 296.653 684.364 297.512 684.998 298.145C685.631 298.779 686.491 299.135 687.387 299.135H720.26C721.194 299.13 722.087 298.756 722.746 298.095C723.404 297.433 723.774 296.538 723.774 295.605V295.368C723.778 294.363 723.384 293.398 722.678 292.682C721.972 291.967 721.012 291.56 720.007 291.552L708.52 291.416L694.718 291.264C694.333 291.256 693.966 291.098 693.695 290.823C693.424 290.549 693.27 290.181 693.265 289.795L693.096 259.209L692.944 228.641C692.936 228.251 692.776 227.88 692.498 227.605C692.221 227.331 691.848 227.176 691.458 227.171H685.495C685.105 227.171 684.731 227.326 684.455 227.602C684.18 227.877 684.025 228.251 684.025 228.641V263.128H684.008Z" fill="#124775"/>
<path d="M926.674 232.289V235.143C926.674 235.445 926.733 235.743 926.849 236.022C926.964 236.301 927.133 236.554 927.347 236.767C927.56 236.98 927.813 237.15 928.092 237.265C928.371 237.38 928.67 237.44 928.971 237.44H933.245C933.867 237.435 934.461 237.187 934.901 236.747C935.34 236.308 935.589 235.714 935.593 235.092V229.688C935.589 229.01 935.316 228.361 934.835 227.884C934.354 227.406 933.704 227.138 933.026 227.138H928.785C928.225 227.138 927.688 227.36 927.292 227.756C926.896 228.152 926.674 228.689 926.674 229.249V232.272V232.289Z" fill="#124775"/>
<path d="M1065.58 299.017C1065.82 299.017 1066.06 298.968 1066.28 298.874C1066.51 298.78 1066.71 298.642 1066.87 298.468C1067.04 298.295 1067.17 298.09 1067.26 297.865C1067.34 297.64 1067.38 297.399 1067.37 297.159C1067.12 290.521 1066.51 276.571 1066.51 262.452V228.675C1066.52 228.483 1066.48 228.293 1066.41 228.116C1066.33 227.939 1066.23 227.778 1066.09 227.643C1065.96 227.507 1065.8 227.4 1065.62 227.328C1065.44 227.256 1065.25 227.22 1065.06 227.222H1059.49C1059.12 227.227 1058.76 227.376 1058.5 227.639C1058.25 227.901 1058.1 228.255 1058.1 228.624L1058.39 256.693L1058.71 286.164L1054.72 278.581C1052.53 274.393 1048.2 266.962 1045.06 261.962C1041.92 256.963 1035.7 247.134 1031.21 240.007L1023.71 227.999C1023.53 227.716 1023.28 227.484 1022.98 227.324C1022.68 227.165 1022.35 227.083 1022.02 227.087H1015.04C1014.52 227.087 1014.02 227.293 1013.65 227.661C1013.29 228.028 1013.08 228.527 1013.08 229.046V297.412C1013.08 297.86 1013.26 298.29 1013.58 298.606C1013.89 298.923 1014.32 299.101 1014.77 299.101H1019.33C1019.61 299.103 1019.88 299.051 1020.13 298.946C1020.39 298.841 1020.62 298.687 1020.81 298.492C1021.01 298.296 1021.16 298.065 1021.26 297.81C1021.36 297.555 1021.41 297.282 1021.41 297.007L1021.22 268.938C1021.1 252.353 1021.22 238.842 1021.36 238.791C1022.1 238.555 1022.14 239.737 1022.68 240.987C1024.74 245.58 1030.31 254.954 1043.86 276.689L1057.14 298.054C1057.32 298.341 1057.57 298.578 1057.86 298.743C1058.16 298.909 1058.49 298.997 1058.83 299L1065.58 299.017Z" fill="#124775"/>
<path d="M926.978 244.448C926.809 244.921 926.758 257.301 926.843 272.045L927.012 298.003C927.011 298.209 927.09 298.408 927.231 298.559C927.372 298.71 927.566 298.801 927.772 298.814L931.302 298.982L934.529 299.134C934.666 299.139 934.802 299.116 934.93 299.067C935.058 299.019 935.175 298.945 935.274 298.851C935.373 298.756 935.452 298.643 935.507 298.518C935.562 298.393 935.591 298.258 935.593 298.121V244.888C935.589 244.548 935.452 244.225 935.212 243.985C934.973 243.745 934.649 243.608 934.309 243.604H931.438C928.769 243.604 927.181 243.908 926.978 244.448Z" fill="#124775"/>
<path d="M625.998 129.014C625.998 170.206 591.047 203.595 547.919 203.595C504.792 203.595 469.824 170.206 469.824 129.014C469.824 87.822 504.775 54.4497 547.919 54.4497C591.064 54.4497 625.998 87.822 625.998 129.014ZM547.919 83.4985C521.583 83.4985 500.248 103.883 500.248 129.098C500.248 154.313 521.583 174.698 547.919 174.698C574.255 174.698 595.574 154.313 595.574 129.098C595.574 103.883 574.238 83.4985 547.919 83.4985Z" fill="#107F4B"/>
<path d="M710.479 153.57C718.098 152.286 727.828 146.814 735.109 139.958C742.509 133.02 747.489 123.892 749.316 113.915C750.081 105.797 749.619 97.6098 747.948 89.6288C743.927 74.4289 733.994 63.5187 718.824 57.6583C707.996 53.4868 707.388 53.4192 671.795 53.149C659.581 53.0477 646.861 53.2335 639.884 53.453C639.021 53.5006 638.208 53.8773 637.614 54.5057C637.02 55.1341 636.69 55.9662 636.691 56.8308V199.997C636.713 200.878 637.079 201.716 637.71 202.331C638.341 202.947 639.188 203.291 640.07 203.291L651.236 202.902L661.845 202.767C662.512 202.758 663.15 202.488 663.621 202.014C664.091 201.541 664.357 200.901 664.362 200.234L664.514 142.187C664.615 107.936 664.953 81.1 665.291 80.3907C665.865 79.2084 666.777 79.1578 682.454 79.5125C705.141 80.0022 710.023 81.2013 716.24 87.8217C723.47 95.523 724.771 107.463 719.534 118.103C715.26 126.818 704.077 131.986 685.562 133.827C671.778 135.195 666.389 138.995 666.389 147.338C666.389 153.671 668.855 156.813 698.925 188.783L710.935 202.041C711.209 202.348 711.545 202.595 711.92 202.763C712.296 202.932 712.703 203.02 713.115 203.02H746.9C747.045 203.019 747.186 202.978 747.309 202.902C747.433 202.826 747.532 202.718 747.599 202.589C747.665 202.461 747.694 202.316 747.684 202.172C747.674 202.028 747.625 201.889 747.542 201.771C746.14 199.862 743.218 196.704 739.873 193.022C729.771 181.926 715.48 166.659 709.651 160.444C708.067 158.915 706.657 157.215 705.445 155.377C705.445 154.6 706.509 154.229 710.479 153.57Z" fill="#124775"/>
<path d="M495.535 54.1455C478.76 53.6557 389.11 53.5544 386.289 54.1455C383.925 54.6132 381.702 55.6181 379.789 57.0823C377.876 58.5466 376.326 60.431 375.258 62.5899C372.386 68.197 375.748 76.5907 382.116 79.732C385.022 81.1845 386.086 81.2858 402.117 81.556L414.027 81.7587C415.371 81.7587 416.66 82.2925 417.61 83.2427C418.561 84.1928 419.095 85.4816 419.095 86.8253V142.322V189.695C419.095 190.168 419.179 190.658 419.213 200.065C419.217 200.837 419.527 201.576 420.075 202.12C420.622 202.664 421.363 202.97 422.135 202.97H442.221C442.628 202.972 443.032 202.894 443.409 202.739C443.786 202.585 444.129 202.358 444.418 202.07C444.707 201.783 444.936 201.442 445.092 201.066C445.249 200.69 445.329 200.286 445.329 199.879L445.616 142.305L445.954 87.0449C445.956 86.3508 446.096 85.6641 446.365 85.0243C446.635 84.3846 447.028 83.8046 447.523 83.3177C448.018 82.8309 448.604 82.4469 449.248 82.188C449.892 81.9291 450.581 81.8004 451.275 81.8093L471.31 81.9613C471.854 81.9615 472.392 81.8456 472.887 81.6213C473.382 81.3971 473.824 81.0696 474.182 80.6609L496.143 55.6317C496.254 55.5066 496.327 55.3529 496.355 55.1882C496.383 55.0234 496.364 54.8542 496.301 54.6995C496.238 54.5448 496.132 54.411 495.997 54.3131C495.862 54.2151 495.701 54.1571 495.535 54.1455Z" fill="#124775"/>
<path d="M880.117 200.132C878.8 198.68 876.587 195.859 874.188 192.515C857.971 169.918 835.334 138.589 832.581 135.093L829.608 131.209L831.821 127.713C833.037 125.805 844.541 108.544 857.329 89.4261C866.873 75.1719 875.066 62.6911 878.529 57.1347C878.655 56.8876 878.718 56.6134 878.712 56.3362C878.707 56.059 878.634 55.7875 878.498 55.5454C878.363 55.3034 878.17 55.0984 877.937 54.9485C877.704 54.7986 877.437 54.7084 877.161 54.6858H851.822C851.125 54.6854 850.438 54.8562 849.823 55.183C849.207 55.5099 848.681 55.9829 848.291 56.5605C847.379 57.9116 846.213 59.7356 845.031 61.6271C840.47 68.9231 823.408 95.9452 817.766 104.795C815.654 108.173 808.103 120.096 800.991 131.412C793.879 142.727 787.781 151.847 787.477 151.678C787.173 151.509 786.902 129.317 786.902 102.43V55.7329C786.902 55.1237 786.66 54.5395 786.23 54.1088C785.799 53.678 785.214 53.436 784.605 53.436H773.861C762.594 53.436 760.786 53.588 760.347 54.5169C759.857 55.8342 759.975 133.557 760.55 169.834L760.955 196.721L762.644 199.203C764.925 202.581 768.05 203.966 773.017 203.966C775.581 204.044 778.123 203.463 780.399 202.277C783.541 200.69 784.369 199.659 793.812 185.388C799.352 176.944 805.637 167.283 807.866 163.737C812.259 156.694 813.424 155.191 814.201 155.647C814.488 155.816 821.786 166.524 830.418 179.46L844.254 200.166C845.037 201.333 846.095 202.291 847.335 202.953C848.575 203.616 849.959 203.964 851.366 203.966H879.408C879.651 203.968 879.892 203.918 880.114 203.819C880.336 203.72 880.534 203.574 880.694 203.391C880.855 203.208 880.974 202.993 881.043 202.76C881.113 202.527 881.131 202.281 881.097 202.041C880.957 201.332 880.63 200.673 880.151 200.132H880.117Z" fill="#124775"/>
<path d="M920.66 204.051C920.931 204.049 921.195 203.968 921.42 203.818C921.645 203.668 921.821 203.455 921.927 203.206C926.083 193.377 933.228 176.522 933.955 174.951C934.589 173.689 935.153 172.392 935.644 171.067C936.034 169.875 936.497 168.707 937.029 167.571C937.789 165.882 938.854 163.366 939.428 162.082L943.33 153.165C944.276 151.02 945.019 149.145 945.019 148.993C945.019 148.841 945.864 146.848 946.928 144.518C947.993 142.187 952.283 132.206 956.49 122.343C960.696 112.48 963.703 104.711 964.683 104.711C965.663 104.711 966.761 107.379 984.464 149.078C991.542 165.73 1003.05 192.364 1007.83 203.341C1007.93 203.58 1008.11 203.782 1008.32 203.923C1008.54 204.064 1008.8 204.138 1009.06 204.135H1037.42C1037.71 204.142 1037.99 204.075 1038.25 203.942C1038.5 203.808 1038.72 203.612 1038.87 203.372C1039.03 203.132 1039.13 202.856 1039.15 202.57C1039.17 202.284 1039.11 201.997 1038.99 201.737C1033.67 189.695 1027.17 174.918 1023.44 166.017C1015.26 146.781 1008.23 130.382 1007.95 129.639C1007.66 128.896 1006.71 126.818 1005.92 124.944C1003.77 119.877 1002.54 117.006 1001.9 115.57C1001.58 114.827 998.688 108.055 995.495 100.472C982.893 70.6461 976.423 57.3039 973.535 55.2266C971.947 54.0782 970.612 53.8755 964.784 53.8755C958.551 53.8755 957.689 54.0275 955.493 55.5644C952.115 57.8613 953.55 54.9226 931.151 107.481C922.079 128.693 913.903 147.98 912.771 150.311C911.639 152.641 898.463 183.784 893.006 196.535C892.365 198.055 891.621 199.812 890.861 201.602C890.722 201.873 890.659 202.178 890.679 202.482C890.699 202.786 890.801 203.08 890.974 203.331C891.147 203.582 891.385 203.782 891.663 203.908C891.94 204.035 892.247 204.084 892.55 204.051H920.66Z" fill="#124775"/>
<path d="M1166.89 75.9996C1165.91 78.0262 1164.86 80.2049 1163.75 82.5524C1162.18 85.9302 1158.87 92.8039 1156.38 97.9719C1150.59 110.047 1145.17 121.43 1142.14 127.814C1140.84 130.567 1137.21 138.134 1134.1 144.568C1130.99 151.003 1127.34 158.501 1126.2 161.17C1125.51 162.885 1124.63 164.517 1123.58 166.034C1122.64 164.748 1121.87 163.346 1121.3 161.862C1118.07 154.837 1114.88 148.064 1110.13 138.218C1104.17 125.822 1098.95 114.895 1095.06 106.703C1093.37 103.022 1090.52 97.1275 1088.84 93.6315C1087.17 90.1355 1083.95 83.38 1081.67 78.5498C1075.18 64.8698 1074.08 62.8432 1071.65 59.9721C1065.41 52.6761 1053.07 52.9294 1049.43 60.445C1048.13 63.1472 1048.1 64.5321 1048.1 132.391C1048.1 170.138 1047.85 201.027 1047.54 201.551V201.652C1047.54 201.848 1047.58 202.042 1047.65 202.224C1047.72 202.405 1047.83 202.57 1047.97 202.708C1048.11 202.847 1048.28 202.956 1048.46 203.03C1048.64 203.104 1048.83 203.141 1049.03 203.139L1072.53 203.054C1072.9 203.054 1073.25 202.909 1073.51 202.65C1073.77 202.39 1073.92 202.038 1073.93 201.669L1074.08 161.913C1074.18 139.333 1074.5 120.637 1074.79 120.451C1075.38 120.096 1076.48 122.461 1084.15 139.552C1087.27 146.595 1090.91 154.499 1092.09 157.218C1093.27 159.937 1094.37 162.285 1094.37 162.386C1094.37 162.487 1095.59 165.24 1097.05 168.381C1098.52 171.523 1099.74 174.259 1099.74 174.394C1099.74 174.529 1100.97 177.299 1102.44 180.524C1110.59 198.224 1112.39 200.673 1118.64 202.48C1125.4 204.523 1131.01 203.122 1135.42 198.224C1138.46 194.846 1138.29 195.201 1156.89 153.57C1162.63 140.717 1165.22 134.992 1166.89 131.226V75.9996Z" fill="#124775"/>
<path d="M1199.39 131.935C1199.39 64.076 1199.39 62.6911 1198.07 59.9889C1194.43 52.4734 1182.09 52.2201 1175.86 59.516C1173.41 62.3871 1172.31 64.4138 1165.84 78.0937V78.2119V133.675C1171.3 121.498 1172.26 119.691 1172.77 120.012C1173.28 120.333 1173.39 138.877 1173.48 161.457L1173.65 201.213C1173.65 201.58 1173.79 201.933 1174.05 202.192C1174.31 202.452 1174.67 202.598 1175.03 202.598L1198.53 202.682C1198.73 202.685 1198.92 202.648 1199.1 202.574C1199.29 202.501 1199.45 202.391 1199.59 202.253C1199.73 202.115 1199.84 201.95 1199.92 201.769C1199.99 201.587 1200.03 201.393 1200.03 201.196V201.095C1199.68 200.571 1199.39 169.682 1199.39 131.935Z" fill="#124775"/>
</g>
<defs>
<clipPath id="clip0_1403_4703">
<rect width="1200" height="341.137" fill="white"/>
</clipPath>
</defs>
</svg>
